<svg width="788" height="338" viewBox="0 0 788 338" fill="none" xmlns="http://www.w3.org/2000/svg">
<path fill-rule="evenodd" clip-rule="evenodd" d="M787 338H1.52588e-05V174C-0.00405884 162.242 1.17891 150.494 3.53098 138.953C8.08768 116.689 16.9854 95.5403 29.716 76.7151C48.6017 48.741 75.1937 26.843 106.271 13.6741C116.797 9.22485 127.738 5.82861 138.933 3.53491C150.474 1.18164 162.222 -0.00268555 174 0H787V338Z" fill="#AFAAC1"/>
<path fill-rule="evenodd" clip-rule="evenodd" d="M788 338H16V174C15.9947 163.21 17.0812 152.407 19.2429 141.795C23.4321 121.314 31.6156 101.86 43.326 84.543C60.6927 58.8184 85.147 38.6821 113.726 26.574C123.405 22.4829 133.465 19.3599 143.759 17.251C154.37 15.0874 165.171 13.998 176 14H788V338Z" fill="black"/>
<path fill-rule="evenodd" clip-rule="evenodd" d="M787 338H77V168C76.9697 148.873 82.6825 130.174 93.3987 114.328C103.817 98.8933 118.487 86.8108 135.632 79.5439C147.454 74.5408 160.163 71.9751 173 72H787V338Z" fill="#1E1E1E"/>
<path fill-rule="evenodd" clip-rule="evenodd" d="M767.8 133H334C306.386 133 284 110.614 284 83C284 55.3857 306.386 33 334 33H767.8C774.39 32.9883 780.917 34.2871 787 36.821V129.179C780.917 131.713 774.39 133.012 767.8 133H767.8Z" fill="black"/>
<path fill-rule="evenodd" clip-rule="evenodd" d="M496 86C496 83.5147 496.879 81.3934 498.636 79.636C500.393 77.8787 502.515 77 505 77H602C604.485 77 606.607 77.8787 608.364 79.636C610.121 81.3934 611 83.5147 611 86C611 88.4853 610.121 90.6066 608.364 92.364C606.607 94.1213 604.485 95 602 95H505C502.515 95 500.393 94.1213 498.636 92.364C496.879 90.6066 496 88.4853 496 86Z" fill="#2B2B29"/>
<circle cx="657" cy="86" r="17" fill="#171717"/>
<circle cx="657" cy="86" r="16" stroke="#2B2B29" stroke-width="2"/>
<circle cx="657" cy="86" r="6" fill="#232A5E"/>
<path fill-rule="evenodd" clip-rule="evenodd" d="M781 303H125C116.163 303 109 295.837 109 287V245C109 236.163 116.163 229 125 229H781C783.426 228.993 785.82 229.543 788 230.608V301.391C785.821 302.456 783.426 303.007 781 303Z" fill="#323234"/>
<path d="M466.528 275.061L471.928 259.509H474.133L466.237 281.145L465.827 282.102C464.813 284.346 463.247 285.468 461.127 285.468C460.638 285.468 460.113 285.389 459.555 285.229L459.538 283.537L460.598 283.64C461.6 283.64 462.409 283.389 463.024 282.888C463.651 282.398 464.181 281.549 464.614 280.341L465.52 277.846L458.547 259.509H460.786L466.528 275.061ZM475.91 268.481C475.91 266.704 476.252 265.103 476.936 263.679C477.631 262.255 478.605 261.149 479.858 260.363C481.123 259.566 482.552 259.167 484.147 259.167C486.608 259.167 488.602 260.033 490.129 261.765C491.656 263.485 492.419 265.769 492.419 268.618V269.045C492.419 270.834 492.071 272.446 491.376 273.881C490.693 275.306 489.724 276.405 488.471 277.18C487.218 277.954 485.788 278.342 484.182 278.342C481.732 278.342 479.738 277.482 478.2 275.761C476.674 274.029 475.91 271.739 475.91 268.891V268.481ZM477.961 269.045C477.961 271.255 478.531 273.072 479.67 274.497C480.821 275.909 482.325 276.616 484.182 276.616C486.027 276.616 487.52 275.909 488.659 274.497C489.81 273.072 490.385 271.198 490.385 268.874V268.481C490.385 267.068 490.123 265.775 489.599 264.602C489.075 263.428 488.34 262.522 487.395 261.884C486.449 261.235 485.367 260.91 484.147 260.91C482.325 260.91 480.838 261.628 479.687 263.063C478.536 264.488 477.961 266.356 477.961 268.669V269.045ZM508.552 275.659C507.321 277.447 505.356 278.342 502.656 278.342C500.685 278.342 499.187 277.772 498.161 276.633C497.136 275.482 496.612 273.785 496.589 271.54V259.509H498.623V271.284C498.623 274.804 500.047 276.564 502.895 276.564C505.857 276.564 507.731 275.34 508.518 272.89V259.509H510.568V278H508.586L508.552 275.659ZM524.445 261.252C524.012 261.172 523.551 261.132 523.061 261.132C521.785 261.132 520.703 261.491 519.814 262.209C518.937 262.915 518.31 263.946 517.934 265.302V278H515.9V259.509H517.9L517.934 262.448C519.016 260.261 520.754 259.167 523.146 259.167C523.716 259.167 524.166 259.241 524.497 259.389L524.445 261.252ZM529.641 259.509L529.709 262.67C530.404 261.531 531.27 260.665 532.307 260.073C533.343 259.469 534.488 259.167 535.742 259.167C537.724 259.167 539.2 259.725 540.168 260.842C541.136 261.958 541.626 263.633 541.638 265.866V278H539.604V265.849C539.593 264.197 539.239 262.967 538.544 262.158C537.861 261.349 536.761 260.944 535.246 260.944C533.981 260.944 532.859 261.343 531.879 262.141C530.911 262.927 530.193 263.992 529.726 265.336V278H527.692V259.509H529.641ZM558.608 278C558.403 277.419 558.272 276.559 558.215 275.419C557.497 276.354 556.58 277.077 555.463 277.59C554.358 278.091 553.185 278.342 551.943 278.342C550.166 278.342 548.724 277.846 547.619 276.855C546.525 275.864 545.979 274.611 545.979 273.095C545.979 271.295 546.725 269.871 548.217 268.823C549.721 267.775 551.812 267.25 554.489 267.25H558.198V265.148C558.198 263.827 557.788 262.79 556.967 262.038C556.158 261.275 554.973 260.893 553.413 260.893C551.988 260.893 550.809 261.258 549.875 261.987C548.941 262.716 548.474 263.593 548.474 264.619L546.423 264.602C546.423 263.132 547.106 261.861 548.474 260.791C549.841 259.708 551.521 259.167 553.515 259.167C555.577 259.167 557.201 259.685 558.386 260.722C559.582 261.748 560.197 263.183 560.231 265.029V273.779C560.231 275.568 560.419 276.906 560.795 277.795V278H558.608ZM552.182 276.53C553.549 276.53 554.768 276.2 555.839 275.539C556.922 274.878 557.708 273.995 558.198 272.89V268.823H554.541C552.501 268.846 550.906 269.222 549.755 269.951C548.605 270.668 548.029 271.66 548.029 272.924C548.029 273.961 548.411 274.821 549.174 275.505C549.949 276.188 550.952 276.53 552.182 276.53ZM567.563 259.509L567.631 262.517C568.315 261.4 569.169 260.563 570.195 260.004C571.22 259.446 572.36 259.167 573.613 259.167C576.529 259.167 578.381 260.363 579.167 262.756C579.828 261.605 580.711 260.722 581.816 260.107C582.921 259.48 584.14 259.167 585.473 259.167C589.438 259.167 591.46 261.332 591.54 265.661V278H589.489V265.815C589.478 264.163 589.119 262.938 588.413 262.141C587.718 261.343 586.578 260.944 584.995 260.944C583.525 260.967 582.283 261.446 581.269 262.38C580.255 263.303 579.691 264.431 579.577 265.764V278H577.526V265.661C577.515 264.077 577.139 262.898 576.398 262.124C575.669 261.337 574.541 260.944 573.015 260.944C571.727 260.944 570.622 261.315 569.699 262.055C568.776 262.784 568.093 263.872 567.648 265.319V278H565.598V259.509H567.563ZM603.896 278.342C602.324 278.342 600.9 277.954 599.624 277.18C598.359 276.405 597.373 275.328 596.667 273.95C595.961 272.56 595.607 271.005 595.607 269.284V268.549C595.607 266.772 595.949 265.171 596.633 263.747C597.328 262.323 598.291 261.206 599.521 260.397C600.751 259.577 602.084 259.167 603.52 259.167C605.764 259.167 607.542 259.936 608.852 261.474C610.174 263.001 610.834 265.091 610.834 267.746V268.891H597.641V269.284C597.641 271.381 598.239 273.129 599.436 274.531C600.643 275.921 602.159 276.616 603.981 276.616C605.075 276.616 606.038 276.416 606.87 276.018C607.713 275.619 608.476 274.981 609.16 274.104L610.441 275.078C608.938 277.254 606.756 278.342 603.896 278.342ZM603.52 260.91C601.982 260.91 600.683 261.474 599.624 262.602C598.575 263.73 597.937 265.245 597.709 267.148H608.801V266.926C608.744 265.148 608.237 263.701 607.28 262.585C606.323 261.468 605.069 260.91 603.52 260.91ZM614.628 276.77C614.628 276.371 614.754 276.035 615.004 275.761C615.266 275.476 615.625 275.334 616.081 275.334C616.537 275.334 616.896 275.476 617.158 275.761C617.42 276.035 617.551 276.371 617.551 276.77C617.551 277.168 617.42 277.499 617.158 277.761C616.896 278.011 616.537 278.137 616.081 278.137C615.625 278.137 615.266 278.011 615.004 277.761C614.754 277.499 614.628 277.168 614.628 276.77ZM627.617 273.745L627.924 275.334L628.334 273.659L632.778 259.509H634.521L638.913 273.54L639.392 275.488L639.785 273.693L643.579 259.509H645.698L640.314 278H638.571L633.82 263.337L633.598 262.329L633.376 263.354L628.71 278H626.967L621.601 259.509H623.703L627.617 273.745ZM661.25 278C661.044 277.419 660.913 276.559 660.856 275.419C660.139 276.354 659.222 277.077 658.105 277.59C657 278.091 655.826 278.342 654.584 278.342C652.807 278.342 651.366 277.846 650.261 276.855C649.167 275.864 648.62 274.611 648.62 273.095C648.62 271.295 649.366 269.871 650.859 268.823C652.363 267.775 654.453 267.25 657.131 267.25H660.839V265.148C660.839 263.827 660.429 262.79 659.609 262.038C658.8 261.275 657.615 260.893 656.054 260.893C654.63 260.893 653.451 261.258 652.517 261.987C651.582 262.716 651.115 263.593 651.115 264.619L649.064 264.602C649.064 263.132 649.748 261.861 651.115 260.791C652.482 259.708 654.163 259.167 656.157 259.167C658.219 259.167 659.842 259.685 661.027 260.722C662.224 261.748 662.839 263.183 662.873 265.029V273.779C662.873 275.568 663.061 276.906 663.437 277.795V278H661.25ZM654.824 276.53C656.191 276.53 657.41 276.2 658.481 275.539C659.563 274.878 660.349 273.995 660.839 272.89V268.823H657.182C655.143 268.846 653.548 269.222 652.397 269.951C651.246 270.668 650.671 271.66 650.671 272.924C650.671 273.961 651.053 274.821 651.816 275.505C652.591 276.188 653.593 276.53 654.824 276.53ZM673.828 275.18L679.45 259.509H681.552L674.648 278H672.99L666.052 259.509H668.154L673.828 275.18ZM687.209 278H685.158V259.509H687.209V278ZM684.799 254.16C684.799 253.772 684.925 253.448 685.175 253.186C685.426 252.912 685.768 252.775 686.201 252.775C686.634 252.775 686.975 252.912 687.226 253.186C687.488 253.448 687.619 253.772 687.619 254.16C687.619 254.547 687.488 254.872 687.226 255.134C686.975 255.396 686.634 255.527 686.201 255.527C685.768 255.527 685.426 255.396 685.175 255.134C684.925 254.872 684.799 254.547 684.799 254.16ZM704.675 275.659C703.444 277.447 701.479 278.342 698.779 278.342C696.808 278.342 695.31 277.772 694.284 276.633C693.259 275.482 692.735 273.785 692.712 271.54V259.509H694.746V271.284C694.746 274.804 696.17 276.564 699.018 276.564C701.98 276.564 703.854 275.34 704.641 272.89V259.509H706.691V278H704.709L704.675 275.659ZM713.886 259.509L713.955 262.517C714.638 261.4 715.493 260.563 716.518 260.004C717.543 259.446 718.683 259.167 719.936 259.167C722.853 259.167 724.704 260.363 725.49 262.756C726.151 261.605 727.034 260.722 728.139 260.107C729.244 259.48 730.463 259.167 731.796 259.167C735.761 259.167 737.784 261.332 737.863 265.661V278H735.812V265.815C735.801 264.163 735.442 262.938 734.736 262.141C734.041 261.343 732.902 260.944 731.318 260.944C729.848 260.967 728.606 261.446 727.592 262.38C726.578 263.303 726.014 264.431 725.9 265.764V278H723.85V265.661C723.838 264.077 723.462 262.898 722.722 262.124C721.993 261.337 720.865 260.944 719.338 260.944C718.05 260.944 716.945 261.315 716.022 262.055C715.1 262.784 714.416 263.872 713.972 265.319V278H711.921V259.509H713.886ZM742.871 276.77C742.871 276.371 742.996 276.035 743.247 275.761C743.509 275.476 743.868 275.334 744.323 275.334C744.779 275.334 745.138 275.476 745.4 275.761C745.662 276.035 745.793 276.371 745.793 276.77C745.793 277.168 745.662 277.499 745.4 277.761C745.138 278.011 744.779 278.137 744.323 278.137C743.868 278.137 743.509 278.011 743.247 277.761C742.996 277.499 742.871 277.168 742.871 276.77ZM758.269 276.616C759.693 276.616 760.883 276.217 761.84 275.419C762.809 274.611 763.333 273.568 763.413 272.292H765.378C765.321 273.42 764.968 274.451 764.318 275.385C763.669 276.308 762.803 277.032 761.721 277.556C760.65 278.08 759.499 278.342 758.269 278.342C755.842 278.342 753.916 277.499 752.492 275.812C751.079 274.126 750.373 271.859 750.373 269.011V268.396C750.373 266.573 750.692 264.96 751.33 263.559C751.968 262.158 752.88 261.075 754.064 260.312C755.261 259.549 756.656 259.167 758.251 259.167C760.279 259.167 761.949 259.771 763.259 260.979C764.58 262.186 765.287 263.776 765.378 265.747H763.413C763.321 264.3 762.797 263.132 761.84 262.243C760.895 261.354 759.698 260.91 758.251 260.91C756.406 260.91 754.97 261.577 753.945 262.91C752.931 264.243 752.424 266.111 752.424 268.515V269.113C752.424 271.472 752.931 273.312 753.945 274.633C754.97 275.955 756.411 276.616 758.269 276.616ZM768.352 268.481C768.352 266.704 768.693 265.103 769.377 263.679C770.072 262.255 771.046 261.149 772.299 260.363C773.564 259.566 774.994 259.167 776.589 259.167C779.05 259.167 781.044 260.033 782.57 261.765C784.097 263.485 784.86 265.769 784.86 268.618V269.045C784.86 270.834 784.513 272.446 783.818 273.881C783.134 275.306 782.166 276.405 780.913 277.18C779.659 277.954 778.229 278.342 776.623 278.342C774.174 278.342 772.18 277.482 770.642 275.761C769.115 274.029 768.352 271.739 768.352 268.891V268.481ZM770.402 269.045C770.402 271.255 770.972 273.072 772.111 274.497C773.262 275.909 774.766 276.616 776.623 276.616C778.469 276.616 779.961 275.909 781.101 274.497C782.251 273.072 782.827 271.198 782.827 268.874V268.481C782.827 267.068 782.565 265.775 782.041 264.602C781.516 263.428 780.782 262.522 779.836 261.884C778.89 261.235 777.808 260.91 776.589 260.91C774.766 260.91 773.279 261.628 772.128 263.063C770.978 264.488 770.402 266.356 770.402 268.669V269.045Z" fill="#84E575"/>
<path d="M157.877 272.361H150.431L148.759 277H146.342L153.129 259.227H155.18L161.979 277H159.574L157.877 272.361ZM151.139 270.433H157.182L154.154 262.12L151.139 270.433ZM174.186 272.361H166.74L165.067 277H162.65L169.438 259.227H171.488L178.288 277H175.883L174.186 272.361ZM167.448 270.433H173.49L170.463 262.12L167.448 270.433Z" fill="white"/>
<path d="M197.353 133.475C196.249 134.559 194.96 135.101 193.485 135.101C191.601 135.101 190.092 134.456 188.959 133.167C187.826 131.868 187.26 130.12 187.26 127.923C187.26 126.526 187.562 125.247 188.168 124.085C188.783 122.913 189.638 122.005 190.731 121.36C191.825 120.706 193.056 120.379 194.423 120.379C195.829 120.379 197.079 120.73 198.173 121.434C199.267 122.137 200.116 123.147 200.722 124.466C201.327 125.784 201.635 127.293 201.645 128.992V130.56C201.645 134.114 200.761 136.907 198.993 138.938C197.226 140.97 194.721 142.054 191.479 142.19L190.438 142.205V138.675L191.376 138.66C195.058 138.494 197.05 136.766 197.353 133.475ZM194.525 131.863C195.209 131.863 195.795 131.688 196.283 131.336C196.781 130.984 197.157 130.56 197.411 130.062V128.318C197.411 126.883 197.138 125.77 196.591 124.979C196.044 124.188 195.312 123.792 194.394 123.792C193.544 123.792 192.846 124.183 192.299 124.964C191.752 125.735 191.479 126.707 191.479 127.879C191.479 129.041 191.742 129.998 192.27 130.75C192.807 131.492 193.559 131.863 194.525 131.863ZM205.058 139.92C205.058 139.246 205.282 138.699 205.731 138.279C206.19 137.859 206.762 137.649 207.445 137.649C208.139 137.649 208.71 137.859 209.159 138.279C209.618 138.699 209.848 139.246 209.848 139.92C209.848 140.584 209.623 141.126 209.174 141.546C208.725 141.956 208.148 142.161 207.445 142.161C206.752 142.161 206.181 141.956 205.731 141.546C205.282 141.126 205.058 140.584 205.058 139.92ZM205.058 127.923C205.058 127.249 205.282 126.702 205.731 126.282C206.19 125.862 206.762 125.652 207.445 125.652C208.139 125.652 208.71 125.862 209.159 126.282C209.618 126.702 209.848 127.249 209.848 127.923C209.848 128.587 209.623 129.129 209.174 129.549C208.725 129.959 208.148 130.164 207.445 130.164C206.752 130.164 206.181 129.959 205.731 129.549C205.282 129.129 205.058 128.587 205.058 127.923ZM225.668 133.973H228.085V137.386H225.668V142H221.435V137.386H212.689L212.499 134.72L221.391 120.672H225.668V133.973ZM216.718 133.973H221.435V126.443L221.156 126.927L216.718 133.973ZM240.653 142H236.42V125.682L231.366 127.249V123.807L240.199 120.643H240.653V142Z" fill="white"/>
<path fill-rule="evenodd" clip-rule="evenodd" d="M416.559 262.829V260.029C416.56 257.328 415.12 254.832 412.781 253.481C410.442 252.131 407.56 252.131 405.222 253.482C402.883 254.833 401.443 257.329 401.444 260.029V262.829H398.959V269.488C398.959 275.033 403.454 279.529 409 279.529C414.545 279.529 419.041 275.033 419.041 269.488V262.829H416.559ZM409.794 272.229V274.701H408.207V272.231C406.811 271.835 405.92 270.471 406.12 269.034C406.32 267.597 407.549 266.527 409 266.527C410.45 266.527 411.679 267.597 411.879 269.034C412.078 270.471 411.188 271.835 409.792 272.231L409.794 272.229ZM414.973 262.829H403.028V260.029C403.028 256.731 405.702 254.057 409 254.057C412.298 254.057 414.972 256.731 414.972 260.029L414.973 262.829Z" fill="#80E770"/>
</svg>
