<svg opacity="0.5" width="34" height="25" viewBox="0 0 34 25" fill="none" xmlns="http://www.w3.org/2000/svg">
<path fill-rule="evenodd" clip-rule="evenodd" d="M17.2 24.8001C14.5369 24.8184 11.911 24.1741 9.55896 22.9251C7.61999 21.8712 5.88879 20.4734 4.44995 18.8001C2.88513 17.015 1.61877 14.9889 0.699951 12.8001C1.62085 10.6123 2.88696 8.58656 4.44995 6.80006C5.88879 5.12669 7.61999 3.72893 9.55896 2.67506C11.911 1.42607 14.5369 0.781752 17.2 0.800062C19.863 0.781752 22.4889 1.42607 24.8409 2.67506C26.7799 3.72893 28.5111 5.12669 29.95 6.80006C31.5148 8.58516 32.7811 10.6112 33.7 12.8001C32.7791 14.9878 31.5129 17.0136 29.95 18.8001C28.5111 20.4735 26.7799 21.8712 24.8409 22.9251C22.4889 24.1741 19.863 24.8184 17.2 24.8001ZM17.2 3.80006C9.37292 3.80006 5.35291 10.1001 3.98694 12.8051C5.33789 15.509 9.33093 21.8001 17.2 21.8001C25.026 21.8001 29.048 15.5001 30.4139 12.7941C29.064 10.0911 25.073 3.80006 17.2 3.80006ZM17.2 18.8001C13.8862 18.8001 11.2 16.1138 11.2 12.8001C11.2 9.48634 13.8862 6.80006 17.2 6.80006C20.5137 6.80006 23.2 9.48634 23.2 12.8001C23.1968 16.1123 20.5125 18.7967 17.2001 18.8001H17.2ZM17.2 9.80006C15.5431 9.80006 14.2 11.1432 14.2 12.8001C14.2 14.4569 15.5431 15.8001 17.2 15.8001C18.8568 15.8001 20.2 14.4569 20.2 12.8001C20.2 11.1432 18.8568 9.80006 17.2 9.80006Z" fill="white"/>
</svg>
